<svg id="Capa_1" data-name="Capa 1" xmlns="http://www.w3.org/2000/svg" viewBox="0 0 458.72 276.96"><polygon fill="#1f140f" points="85.66 204.53 85.27 79.69 50.08 89.52 50.52 250.41 134.9 226.69 134.87 190.63 85.66 204.53"/><path fill="#1f140f" d="M189.42,84.82a46,46,0,0,0-12.88,1.88c-15.19,4.44-28.33,15.07-37,29.94a78.3,78.3,0,0,0-9.22,51.87c4.47,27.69,23.33,46.29,46.91,46.29a45.8,45.8,0,0,0,12.86-1.88c32.91-9.6,52.36-43.92,46.26-81.6-4.5-27.81-23.36-46.5-46.93-46.5m-4.09,94.52a17.47,17.47,0,0,1-4.92.75c-8.42,0-14.45-7.42-16.54-20.35-3-18.71,4.46-35.67,17.43-39.45a15.49,15.49,0,0,1,4.39-.66c8.38,0,14.86,7.78,16.88,20.31,3,18.71-4.38,35.65-17.24,39.4"/><path fill="#1f140f" d="M405.38,83.46C400.88,55.65,382,37,358.45,37a46,46,0,0,0-12.88,1.88c-15.19,4.44-28.33,15.06-37,29.94a74.26,74.26,0,0,0-5.63,12V72.69h-2.32l-.18-17.81-20.27,5.91-.35-31.85-32.89,9.6.16,31.9-12.44,3.63.33,33.55,12.17-3.55V146.6c0,13.73,3.33,24.63,9.69,31.51,5.07,5.47,12,8.37,20.09,8.37a44,44,0,0,0,12.26-1.9,54.64,54.64,0,0,0,10.13-4.39l2.75-1.52-.21-34.86-7.08,3.59a37,37,0,0,1-5.91,2.53,14,14,0,0,1-3.81.63c-1.67,0-4.78,0-4.83-9.8l0-46.35,20.36-5.94a80.12,80.12,0,0,0-1.28,32.18c4.48,27.69,23.33,46.29,46.91,46.29a45.8,45.8,0,0,0,12.86-1.88c32.91-9.6,52.36-43.92,46.26-81.6M300.77,87.78h0l0,.12Zm53.59,43.7a17.83,17.83,0,0,1-4.92.75c-8.42,0-14.45-7.42-16.54-20.35-3-18.71,4.47-35.67,17.43-39.46a15.88,15.88,0,0,1,4.39-.65c8.38,0,14.85,7.78,16.88,20.31,3,18.71-4.38,35.65-17.24,39.4"/><path fill="#1f140f" d="M265.15,202l15.67-4.58a18.23,18.23,0,0,1,5-.76c6.81,0,11.78,4.54,13,11.86,1.69,10.49-4.31,19.62-14.93,22.72l-7.36,2.15.11,17.29L265.29,254Zm11.37,19.36,5.18-1.51c6-1.76,6.27-5.27,5.81-8.13-.22-1.37-.95-3-3.18-3a5.87,5.87,0,0,0-1.68.27l-6.14,1.79Z"/><polygon fill="#1f140f" points="303.78 190.67 315.05 187.38 315.18 227.29 333.95 221.81 333.96 233.91 303.92 242.67 303.78 190.67"/><path fill="#1f140f" d="M351.31,228.92c-8.42,0-13.26-6.75-13.29-18.53v-29.7l11.27-3.29.1,31.6c0,7.95,2.75,7.95,3.77,7.95a6.86,6.86,0,0,0,2-.33c2.65-.77,6.16-2.75,6.14-11l-.08-31.66,11.4-3.33,0,34c0,12.33-5.38,20.43-15.62,23.41a20.3,20.3,0,0,1-5.67.89"/><path fill="#1f140f" d="M391.92,216.89c-7.87,0-13.41-4.8-15.19-13.18l-.4-1.87,11.11-3.25.47,2c.72,3.06,2.4,4.49,5.29,4.49a13,13,0,0,0,3.37-.52c4.2-1.17,6.65-3.64,6.22-6.28-.3-1.83-2-2.35-9.37-2.94-7.95-.68-13.54-3-15-11.93-1.4-8.68,4.67-17,14.43-19.89a20.56,20.56,0,0,1,5.8-.9c8.79,0,12.87,6.74,13.69,12.52l.24,1.76-11.17,3.26-.46-2c-.59-2.5-1.8-3.62-3.94-3.62a9.16,9.16,0,0,0-2.47.4c-2.52.73-5.31,2.5-4.9,5,.21,1.31.36,2.25,7.09,2.77,7.88.64,15.71,2.1,17.32,12,1.53,9.48-4.57,17.94-15.2,21a25,25,0,0,1-6.93,1.07"/><polygon fill="#fff" points="138.88 215 138.84 182.28 89.64 196.17 89.25 71.34 58.55 80.31 58.98 237.86 138.88 215"/><path fill="#fff" d="M306.05,167.23l-.18-31.33-5,2.51a38,38,0,0,1-6.17,2.63,15.31,15.31,0,0,1-4.2.69c-2.92,0-6.28-1.29-6.33-11.41l0-47.6,20.49-6-.3-30.21-20.28,5.92-.35-31.85-29.9,8.72.16,31.9-12.44,3.64.3,30.21,12.19-3.56,0,44.64c0,13.3,3.17,23.8,9.25,30.36,4.78,5.17,11.35,7.9,19,7.9a42.8,42.8,0,0,0,11.88-1.84,53.59,53.59,0,0,0,9.83-4.28Z"/><path fill="#fff" d="M240.35,121.15C236,94.14,217.71,76,194.9,76a44.28,44.28,0,0,0-12.49,1.83c-14.83,4.32-27.66,14.7-36.13,29.23a76.64,76.64,0,0,0-9,50.74c4.35,26.88,22.61,44.94,45.43,44.94a44.38,44.38,0,0,0,12.47-1.82c32.14-9.38,51.14-42.92,45.18-79.76m-49.15,49.3a19.07,19.07,0,0,1-5.31.8c-9.23,0-15.79-7.9-18-21.68-3.17-19.54,4.79-37.29,18.51-41.3a17.25,17.25,0,0,1,4.78-.71c9.17,0,16.2,8.3,18.36,21.65,3.17,19.54-4.71,37.27-18.32,41.24"/><path fill="#fff" d="M409.38,73.29c-4.37-27-22.64-45.16-45.45-45.16A44.62,44.62,0,0,0,351.44,30c-14.83,4.33-27.66,14.71-36.13,29.23a76.6,76.6,0,0,0-9,50.74c4.35,26.89,22.61,45,45.43,45a44.43,44.43,0,0,0,12.47-1.82c32.14-9.38,51.14-42.92,45.18-79.76m-49.16,49.3a19.07,19.07,0,0,1-5.31.8c-9.22,0-15.78-7.9-18-21.68-3.17-19.54,4.79-37.3,18.51-41.3a17.25,17.25,0,0,1,4.78-.71c9.17,0,16.2,8.29,18.36,21.65,3.17,19.53-4.71,37.27-18.33,41.24"/><path fill="#1f140f" d="M141.84,178.09,92.62,192,92.24,67.12,55.55,77.83,56,242.07l85.88-24.58ZM89.25,71.34l.39,124.83,49.2-13.89,0,32.72L59,237.86,58.55,80.3Z"/><path fill="#1f140f" d="M308.83,130.81l-9.2,4.68a34.66,34.66,0,0,1-5.67,2.42,12.56,12.56,0,0,1-3.41.59c-1.24,0-3.3,0-3.34-8.19l0-45.12,18.82-4.82,1.66-4.77-.34-33.28-20.27,5.91-.35-31.85L250.9,26.85l.16,31.9-12.45,3.64L239,99.28l12.14-3.55,0,40.42c0,14.17,3.47,25.46,10.12,32.65,5.36,5.79,12.67,8.85,21.15,8.85a45.32,45.32,0,0,0,12.66-2,56.13,56.13,0,0,0,10.41-4.52l3.58-1.95Zm-26.42,43.6c-7.67,0-14.24-2.73-19-7.9-6.08-6.56-9.28-17.06-9.25-30.36l0-44.64-12.19,3.56-.3-30.21,12.44-3.63-.16-31.91,29.9-8.73.35,31.86,20.28-5.92.3,30.21-20.49,6,0,47.6c.05,10.11,3.41,11.41,6.34,11.41a15.31,15.31,0,0,0,4.19-.69,38.92,38.92,0,0,0,6.17-2.62l5-2.52.18,31.34-1.93,1a53.59,53.59,0,0,1-9.83,4.28,42.8,42.8,0,0,1-11.88,1.84"/><path fill="#1f140f" d="M243.3,120.6C238.67,92,219.22,72.75,194.9,72.75a47.69,47.69,0,0,0-13.28,1.94c-15.55,4.54-29,15.42-37.87,30.64a80,80,0,0,0-9.44,53C138.92,186.83,158.37,206,182.7,206A47.08,47.08,0,0,0,196,204c33.67-9.82,53.58-44.91,47.34-83.43m-60.6,82.13c-22.82,0-41.08-18.06-45.44-44.94a76.59,76.59,0,0,1,9-50.74c8.46-14.53,21.29-24.91,36.12-29.23A44.28,44.28,0,0,1,194.9,76c22.81,0,41.08,18.15,45.45,45.16,6,36.84-13,70.38-45.18,79.76a44.38,44.38,0,0,1-12.47,1.82"/><path fill="#1f140f" d="M191.16,107.56a17.25,17.25,0,0,0-4.78.71c-13.72,4-21.68,21.76-18.52,41.3,2.24,13.78,8.8,21.68,18,21.68a18.72,18.72,0,0,0,5.32-.8c13.61-4,21.49-21.7,18.32-41.24-2.16-13.35-9.19-21.65-18.36-21.65M185.88,168c-7.61,0-13.1-6.93-15.06-19-2.89-17.88,4.13-34,16.35-37.62a14.56,14.56,0,0,1,4-.59c7.61,0,13.52,7.26,15.41,19,2.89,17.88-4,34-16.16,37.56a16,16,0,0,1-4.53.69"/><path fill="#1f140f" d="M412.33,72.73c-4.63-28.61-24.08-47.84-48.4-47.84a47.32,47.32,0,0,0-13.28,1.94c-15.56,4.54-29,15.42-37.88,30.64a80,80,0,0,0-9.43,53C308,139,327.4,158.1,351.73,158.1A47.43,47.43,0,0,0,365,156.17c33.67-9.82,53.58-44.92,47.34-83.44m-60.6,82.14c-22.82,0-41.08-18.06-45.43-44.95a76.6,76.6,0,0,1,9-50.74c8.47-14.52,21.3-24.9,36.13-29.23a44.62,44.62,0,0,1,12.49-1.82c22.81,0,41.08,18.14,45.45,45.16,6,36.84-13,70.38-45.18,79.76a44.38,44.38,0,0,1-12.47,1.82"/><path fill="#1f140f" d="M360.19,59.7a17.25,17.25,0,0,0-4.78.71c-13.72,4-21.68,21.76-18.52,41.3,2.24,13.78,8.8,21.68,18,21.68a19.19,19.19,0,0,0,5.32-.8c13.61-4,21.49-21.7,18.32-41.24C376.39,68,369.36,59.7,360.19,59.7m-5.28,60.46c-7.61,0-13.1-6.93-15.06-19C337,83.27,344,67.1,356.2,63.53a14.58,14.58,0,0,1,4-.6c7.61,0,13.52,7.27,15.41,19,2.89,17.88-4.05,34-16.16,37.57a16.15,16.15,0,0,1-4.53.69"/></svg>