<svg id="Capa_1" data-name="Capa 1" xmlns="http://www.w3.org/2000/svg" viewBox="0 0 205.88 110"><path fill="#4d4d4d" d="M62.68,92.44h2.21a6.23,6.23,0,0,1,1.47.16,2.78,2.78,0,0,1,1.12.6,4.22,4.22,0,0,1,1.3,3.39A6.54,6.54,0,0,1,68.65,98a4.37,4.37,0,0,1-.4,1.12,3.72,3.72,0,0,1-.7.89,2.93,2.93,0,0,1-.74.48,3.36,3.36,0,0,1-.85.26,6.54,6.54,0,0,1-1,.07h-2.2a1.37,1.37,0,0,1-.69-.14.63.63,0,0,1-.31-.39,2.42,2.42,0,0,1-.07-.66V93.48a1.1,1.1,0,0,1,.24-.79A1.12,1.12,0,0,1,62.68,92.44Zm.66,1.34v5.67h1.28a5.62,5.62,0,0,0,.66,0,1.88,1.88,0,0,0,.5-.11,1.28,1.28,0,0,0,.44-.26,3.06,3.06,0,0,0,.85-2.47,3.74,3.74,0,0,0-.37-1.85,1.67,1.67,0,0,0-.92-.78,4.65,4.65,0,0,0-1.32-.17Z"/><path fill="#4d4d4d" d="M75.77,93.75H72v2h3.51a.87.87,0,0,1,.58.17.65.65,0,0,1,0,.92.82.82,0,0,1-.58.18H72v2.38H75.9a.86.86,0,0,1,.6.18.7.7,0,0,1,0,1,.86.86,0,0,1-.6.18H71.31a.88.88,0,0,1-1-1V93.48a1.5,1.5,0,0,1,.11-.6.65.65,0,0,1,.34-.33,1.41,1.41,0,0,1,.59-.11h4.46a.86.86,0,0,1,.6.18.62.62,0,0,1,.2.47.63.63,0,0,1-.2.48A.86.86,0,0,1,75.77,93.75Z"/><path fill="#4d4d4d" d="M82.62,93.33V99.4h3.43a.93.93,0,0,1,.63.2.67.67,0,0,1,.22.5.62.62,0,0,1-.22.5.9.9,0,0,1-.63.19H82a.88.88,0,0,1-1-1V93.33a1.12,1.12,0,0,1,.23-.77.79.79,0,0,1,.61-.26.81.81,0,0,1,.61.25A1.1,1.1,0,0,1,82.62,93.33Z"/><path fill="#4d4d4d" d="M93.19,99.85l-.39-1H89.4L89,99.87a3.35,3.35,0,0,1-.39.84.66.66,0,0,1-.55.22.8.8,0,0,1-.56-.23.72.72,0,0,1-.24-.53,1.1,1.1,0,0,1,0-.35c0-.12.1-.29.19-.51l2.14-5.42.21-.56a2.69,2.69,0,0,1,.28-.54,1,1,0,0,1,.38-.35,1.16,1.16,0,0,1,.58-.14,1.14,1.14,0,0,1,.59.14,1.07,1.07,0,0,1,.39.34,3.21,3.21,0,0,1,.24.45c.07.16.15.38.25.65l2.18,5.39a2.72,2.72,0,0,1,.26.89.74.74,0,0,1-.24.53.81.81,0,0,1-.59.24.74.74,0,0,1-.34-.07.88.88,0,0,1-.24-.19,1.82,1.82,0,0,1-.2-.38C93.31,100.12,93.25,100,93.19,99.85Zm-3.34-2.32h2.49l-1.26-3.45Z"/><path fill="#4d4d4d" d="M106.27,98.15a2.27,2.27,0,0,1-.2.87,3.13,3.13,0,0,1-.62.91,3.06,3.06,0,0,1-1.07.72,3.83,3.83,0,0,1-1.53.28,5.54,5.54,0,0,1-1.2-.12,3.72,3.72,0,0,1-1-.39,3.14,3.14,0,0,1-.81-.7,4.16,4.16,0,0,1-.57-.88,4.89,4.89,0,0,1-.35-1,5.53,5.53,0,0,1-.11-1.17,5.17,5.17,0,0,1,.29-1.81,3.85,3.85,0,0,1,.84-1.36,3.49,3.49,0,0,1,1.28-.86,4.1,4.1,0,0,1,1.57-.3,3.91,3.91,0,0,1,1.8.41,3.12,3.12,0,0,1,1.21,1,2,2,0,0,1,.43,1.12.73.73,0,0,1-.21.51.64.64,0,0,1-.49.22.7.7,0,0,1-.49-.15,2,2,0,0,1-.36-.53,2.61,2.61,0,0,0-.78-.93,2,2,0,0,0-1.1-.3,2,2,0,0,0-1.66.79,3.57,3.57,0,0,0-.62,2.25,4.29,4.29,0,0,0,.27,1.62,2,2,0,0,0,.78,1,2.14,2.14,0,0,0,1.17.32,2,2,0,0,0,1.23-.36,2.17,2.17,0,0,0,.76-1.06,1.94,1.94,0,0,1,.27-.54.61.61,0,0,1,.51-.21.72.72,0,0,1,.52.21A.69.69,0,0,1,106.27,98.15Z"/><path fill="#4d4d4d" d="M107.86,99.9V93.33a1.08,1.08,0,0,1,.23-.77.79.79,0,0,1,.6-.26.82.82,0,0,1,.62.25,1.1,1.1,0,0,1,.24.78V99.9a1.1,1.1,0,0,1-.24.78.79.79,0,0,1-.62.25.76.76,0,0,1-.6-.26A1.12,1.12,0,0,1,107.86,99.9Z"/><path fill="#4d4d4d" d="M111.45,97.34v-4a1.12,1.12,0,0,1,.23-.77.86.86,0,0,1,1.23,0,1.12,1.12,0,0,1,.23.77v4.1a3.55,3.55,0,0,0,.16,1.17,1.35,1.35,0,0,0,.55.73,2.08,2.08,0,0,0,1.12.26,1.67,1.67,0,0,0,1.4-.53,2.58,2.58,0,0,0,.41-1.59V93.33a1.15,1.15,0,0,1,.23-.78.8.8,0,0,1,.61-.25.81.81,0,0,1,.61.25,1.1,1.1,0,0,1,.24.78v4a5.91,5.91,0,0,1-.19,1.64,2.58,2.58,0,0,1-.72,1.14,2.7,2.7,0,0,1-1.06.62,4.58,4.58,0,0,1-1.41.19,6.18,6.18,0,0,1-1.66-.2A2.52,2.52,0,0,1,111.65,99,6,6,0,0,1,111.45,97.34Z"/><path fill="#4d4d4d" d="M121.35,92.44h2.2a6.23,6.23,0,0,1,1.47.16,2.71,2.71,0,0,1,1.12.6,4.22,4.22,0,0,1,1.3,3.39,6.54,6.54,0,0,1-.13,1.38,4,4,0,0,1-.4,1.12,3.72,3.72,0,0,1-.7.89,2.77,2.77,0,0,1-.74.48,3.36,3.36,0,0,1-.85.26,6.54,6.54,0,0,1-1,.07h-2.2a1.37,1.37,0,0,1-.69-.14.63.63,0,0,1-.31-.39,2.42,2.42,0,0,1-.07-.66V93.48a1.06,1.06,0,0,1,.25-.79A1.08,1.08,0,0,1,121.35,92.44Zm.65,1.34v5.67h1.28a5.62,5.62,0,0,0,.66,0,1.88,1.88,0,0,0,.5-.11,1.28,1.28,0,0,0,.44-.26,3.06,3.06,0,0,0,.85-2.47,3.64,3.64,0,0,0-.37-1.85,1.67,1.67,0,0,0-.92-.78,4.65,4.65,0,0,0-1.32-.17Z"/><path fill="#4d4d4d" d="M133.83,99.85l-.4-1H130l-.4,1.07a3.66,3.66,0,0,1-.4.84.62.62,0,0,1-.54.22.83.83,0,0,1-.57-.23.72.72,0,0,1-.24-.53,1.12,1.12,0,0,1,.06-.35c0-.12.1-.29.18-.51l2.14-5.42.22-.56a2.26,2.26,0,0,1,.27-.54,1.06,1.06,0,0,1,.38-.35,1.31,1.31,0,0,1,1.18,0,1.12,1.12,0,0,1,.38.34,2.42,2.42,0,0,1,.24.45c.07.16.15.38.26.65l2.18,5.39a2.64,2.64,0,0,1,.25.89.74.74,0,0,1-.24.53.78.78,0,0,1-.58.24.69.69,0,0,1-.34-.07.65.65,0,0,1-.24-.19,1.43,1.43,0,0,1-.21-.38C133.94,100.12,133.88,100,133.83,99.85Zm-3.35-2.32H133l-1.25-3.45Z"/><path fill="#4d4d4d" d="M137.92,92.44h2.2a6.26,6.26,0,0,1,1.48.16,2.84,2.84,0,0,1,1.12.6,4.25,4.25,0,0,1,1.3,3.39,6.54,6.54,0,0,1-.13,1.38,4,4,0,0,1-.41,1.12,3.48,3.48,0,0,1-.7.89,2.88,2.88,0,0,1-.73.48,3.44,3.44,0,0,1-.86.26,6.41,6.41,0,0,1-1,.07H138a1.44,1.44,0,0,1-.7-.14.62.62,0,0,1-.3-.39,2.37,2.37,0,0,1-.08-.66V93.48a.9.9,0,0,1,1-1Zm.66,1.34v5.67h1.28a5.62,5.62,0,0,0,.66,0,1.81,1.81,0,0,0,.49-.11,1.43,1.43,0,0,0,.45-.26,3.09,3.09,0,0,0,.85-2.47,3.62,3.62,0,0,0-.38-1.85A1.63,1.63,0,0,0,141,94a4.55,4.55,0,0,0-1.32-.17Z"/><polygon fill="#e20613" points="113.16 63.13 111.19 62.64 111.86 39.83 107.18 52.07 105.18 51.65 105.82 39.08 99.97 54.07 97.97 53.63 99.27 34.18 95.41 45.06 93.4 44.66 94.7 21.46 85.78 45.08 83.78 44.64 85.86 15.61 75.69 45.05 73.73 44.38 86.48 7.47 88.49 7.88 86.35 37.71 95.15 14.43 97.15 14.85 95.87 37.57 99.83 26.41 101.84 26.83 100.48 47.05 106.22 32.37 108.21 32.8 107.58 45.22 112.1 33.38 114.11 33.77 113.4 57.97 125.13 34.28 126.99 35.2 113.16 63.13"/><polygon fill="#ffdc00" points="76.42 63.99 74.44 63.35 85.03 30.43 87.05 30.81 85.81 52.03 93.09 30.42 95.11 30.82 93.63 54.47 107.65 15.44 109.66 15.84 109.02 29.12 115.59 11.44 117.59 11.84 116.73 32.4 124.39 15.36 126.28 16.21 116.42 38.16 114.44 37.69 115.25 18.29 108.63 36.1 106.63 35.69 107.25 22.66 93.12 62.03 91.11 61.61 92.55 38.51 85.31 60.01 83.3 59.62 84.51 38.83 76.42 63.99"/><polygon fill="#009992" points="76.17 54.02 74.21 53.37 84.67 21.45 86.69 21.83 85.53 42.44 90.09 29.41 92.1 29.82 91.2 44.12 98.88 24.39 100.88 24.82 99.9 44.64 105.96 27.41 107.97 27.83 107.03 40.85 114.15 22.4 116.15 22.82 115.17 44 124.78 25.29 126.62 26.24 114.83 49.18 112.88 48.66 113.79 29.1 106.46 48.08 104.46 47.63 105.35 35.41 99.5 52.04 97.49 51.65 98.5 31.08 90.71 51.08 88.71 50.64 89.56 37.21 85.07 50.05 83.06 49.65 84.18 29.6 76.17 54.02"/><path d="M18.84,57.29V82.55H8.57V48H21.76q6,0,9.33,3a11.15,11.15,0,0,1-.88,17.31l5.92,14.25H25.35l-5-11.14V62.53h.81q3.24,0,3.24-2.78,0-2.46-3.74-2.46Z"/><path d="M52.1,65.21v9.11h-3v8.23H38.86v-22q0-6.37,3.48-9.9t9.78-3.53q6.08,0,9,3.2T64,60.23V82.55H53.74V60.91a5.83,5.83,0,0,0-.48-2.81,1.85,1.85,0,0,0-1.72-.78c-1.6,0-2.4,1.2-2.4,3.59v4.3Z"/><path d="M85.42,47.85V57.7a5.55,5.55,0,0,0-1.72-.38,2.68,2.68,0,0,0-2,.86,2.85,2.85,0,0,0-.84,2.07,5.66,5.66,0,0,0,.91,2.64l.79,1.36a14.39,14.39,0,0,1,2.12,7.14,11.45,11.45,0,0,1-3.58,8.53,12.08,12.08,0,0,1-8.74,3.49,11.44,11.44,0,0,1-4.91-1.14v-10a5,5,0,0,0,2.6.94,3.33,3.33,0,0,0,2.24-.77,2.45,2.45,0,0,0,.9-1.94,9.88,9.88,0,0,0-1.44-3.31,16.31,16.31,0,0,1-2.3-8.1,11.57,11.57,0,0,1,3.48-8.41,11.24,11.24,0,0,1,8.31-3.53A12.68,12.68,0,0,1,85.42,47.85Z"/><path d="M100.84,70.6V61.54c2.07,0,3.11-.79,3.11-2.37S103.16,57,101.57,57s-2.4,1-2.4,3V82.55H88.89V61a18.94,18.94,0,0,1,.67-5.48,11.2,11.2,0,0,1,2.29-4,13.12,13.12,0,0,1,4.56-3.24,14,14,0,0,1,5.64-1.18,12.1,12.1,0,0,1,8.85,3.54,11.88,11.88,0,0,1,3.58,8.78,11.08,11.08,0,0,1-3.22,8.25q-2.94,2.91-8.85,2.91Z"/><path d="M130.22,65.21v9.11h-3v8.23H117v-22q0-6.37,3.48-9.9t9.78-3.53q6.07,0,9,3.2t2.91,9.88V82.55H131.86V60.91a5.83,5.83,0,0,0-.48-2.81,1.85,1.85,0,0,0-1.72-.78c-1.6,0-2.4,1.2-2.4,3.59v4.3Z"/><path d="M171.67,48,161.9,63.37V82.55H151.63V63.37L141.78,48h10.43l4.45,7.11L161.44,48Z"/><path d="M183.84,65.21v9.11h-3v8.23H170.61v-22q0-6.37,3.48-9.9t9.78-3.53q6.07,0,9,3.2t2.91,9.88V82.55H185.49V60.91A5.83,5.83,0,0,0,185,58.1a1.86,1.86,0,0,0-1.72-.78c-1.61,0-2.41,1.2-2.41,3.59v4.3Z"/></svg>