<svg xmlns="http://www.w3.org/2000/svg" width="220" height="180" viewBox="0 0 220 180">
  <g transform="translate(18 6)">
    <path d="M66 34c6-14 18-22 32-22 25 0 44 18 44 43 0 5-1 10-3 15l8 26c2 7-3 14-11 14H69c-8 0-13-7-11-14l8-28c-3-5-4-11-4-17 0-6 1-11 4-17Z" fill="#b27a43"/>
    <path d="M95 33c4-14 15-23 28-23 16 0 30 14 30 31 0 10-5 19-12 25l3 29c1 7-5 12-11 10l-26-7-21 7c-7 2-13-4-11-11l4-28c-7-6-11-15-11-25 0-15 12-29 27-31Z" fill="#cc9259"/>
    <path d="M79 38c-4-1-7-4-8-8-4 1-8 4-12 7-6 4-11 10-15 17 12 3 22 8 31 14l15-18-11-12Z" fill="#e58f1f"/>
    <path d="M141 53c9-3 18-2 26 2 8 4 14 11 18 20l-19 12-24-10-1-24Z" fill="#d28d4d"/>
    <path d="M77 73c-5-9-5-19 1-28l14 8-15 20Z" fill="#cf7d1e"/>
    <path d="M114 35c10 0 18 7 18 17v18c0 14-10 26-22 26s-22-12-22-26V52c0-10 8-17 18-17h8Z" fill="#ecb18f"/>
    <path d="M100 38c6-7 16-10 25-7 8 3 14 10 16 18l-8 2c-2-4-6-8-11-10-8-3-16 0-22 6V38Z" fill="#8f6d53"/>
    <path d="M93 51c5 6 11 10 18 12 8 2 16 1 23-2l6 7c-4 4-9 7-14 9 0 8-7 15-16 15-10 0-18-8-18-18v-23Z" fill="#efb490"/>
    <path d="M91 58c5-7 12-13 20-15 9-2 18 0 25 6l-6 12-37-3-2-0Z" fill="#10a85b"/>
    <path d="M104 51l8 6 10-6 6 11-5 12h-24l-4-12 9-11Z" fill="#4dbdc6"/>
    <path d="M103 64h7v7h-7zM114 64h7v7h-7z" fill="#1f2d3d"/>
    <path d="M96 54l11 8M123 54l-10 8" stroke="#ffd45d" stroke-width="3" stroke-linecap="round"/>
    <path d="M116 76c2 5 4 11 5 18l2 16h-8l-3-18-3 18h-8l2-16c1-6 3-12 5-18h8Z" fill="#6c8651"/>
    <path d="M101 94l9 8 9-8" stroke="#ffcf5c" stroke-width="3" stroke-linecap="round" fill="none"/>
    <path d="M91 77l-10 13M133 77l10 13" stroke="#8a5d39" stroke-width="6" stroke-linecap="round"/>
    <path d="M79 83c-4 5-6 10-6 16M145 83c4 5 6 10 6 16" stroke="#7f5435" stroke-width="5" stroke-linecap="round"/>
    <path d="M60 49c-9 0-16 7-16 16 0 9 7 16 16 16 4 0 8-2 11-5V54c-3-3-7-5-11-5Z" fill="#ffd34d"/>
    <path d="M55 52c4 4 6 9 7 14-4 1-8 2-12 2-2-5-2-10 0-16h5Z" fill="#1d1d1d"/>
    <path d="M66 57c-6 0-11 5-11 11h22c0-6-5-11-11-11Z" fill="#fff8e6"/>
    <circle cx="62" cy="63" r="2.5" fill="#1d1d1d"/>
    <circle cx="70" cy="63" r="2.5" fill="#1d1d1d"/>
    <path d="M61 71h10" stroke="#1d1d1d" stroke-width="2" stroke-linecap="round"/>
    <path d="M82 35c4-6 10-10 17-12l4 9c-7 1-12 4-17 9l-4-6Z" fill="#f2b62b"/>
    <path d="M102 17l8 7 10-5 3 9 10-2-2 9 8 4-7 6" stroke="#f0b92f" stroke-width="4" stroke-linecap="round" fill="none"/>
    <path d="M100 17l7 9M110 24l6-8M120 19l5 8" stroke="#49b7d4" stroke-width="3" stroke-linecap="round"/>
    <path d="M35 110c25 0 50 2 75 5" stroke="#d07e13" stroke-width="4" stroke-linecap="round" opacity=".35"/>
  </g>
  <g transform="translate(0 104)">
    <text x="18" y="35" font-family="Arial Black, Arial, Helvetica, sans-serif" font-size="29" font-weight="900" fill="#e39a10" transform="rotate(-6 18 35)">TÓMBOLA</text>
    <text x="48" y="68" font-family="Arial Black, Arial, Helvetica, sans-serif" font-size="25" font-weight="900" fill="#2f98b1">JUJEÑA</text>
    <path d="M18 63c18 7 38 7 56 0" stroke="#7fc3cf" stroke-width="6" stroke-linecap="round"/>
    <path d="M138 63c18 7 38 7 56 0" stroke="#7fc3cf" stroke-width="6" stroke-linecap="round"/>
  </g>
</svg>
